<svg xmlns="http://www.w3.org/2000/svg" viewBox="0 0 128 128">
  <defs>
    <linearGradient id="g" x1="0%" x2="100%" y1="0%" y2="100%">
      <stop offset="0%" stop-color="#00c8b3" />
      <stop offset="100%" stop-color="#0078a4" />
    </linearGradient>
  </defs>
  <rect width="128" height="128" rx="28" fill="url(#g)" />
  <path d="M64 22c18.748 0 34 14.58 34 32.556 0 11.509-5.705 19.852-11.238 27.74-6.981 9.958-14.186 19.58-20.056 30.704-0.703 1.3-2.709 1.3-3.412 0-5.87-11.124-13.075-20.746-20.056-30.704C35.705 74.408 30 66.065 30 54.556 30 36.58 45.252 22 64 22zm0 19.111c-7.087 0-12.834 5.507-12.834 12.278S56.913 65.667 64 65.667s12.834-5.507 12.834-12.278S71.087 41.111 64 41.111z" fill="#fff" />
</svg>
