<svg width="400" height="300" viewBox="0 0 400 300" xmlns="http://www.w3.org/2000/svg" role="img" aria-labelledby="title desc">
  <title id="title">Карта клиники</title>
  <desc id="desc">Статическое изображение с обозначением расположения клиники</desc>
  <rect width="400" height="300" rx="16" fill="#F5F6F8"/>
  <path d="M48 48h304v204H48z" fill="#E1E5EE" stroke="#C5CBD9" stroke-width="2" stroke-dasharray="8 6"/>
  <circle cx="200" cy="150" r="56" fill="#D6F6F2" stroke="#00C8B3" stroke-width="4"/>
  <circle cx="200" cy="150" r="12" fill="#00C8B3"/>
  <path d="M200 90c-22 0-40 18-40 40 0 30 40 80 40 80s40-50 40-80c0-22-18-40-40-40zm0 60a20 20 0 110-40 20 20 0 010 40z" fill="#00A08F"/>
  <path d="M80 120h48m-24-24v48" stroke="#939AAC" stroke-width="4" stroke-linecap="round" stroke-linejoin="round"/>
  <path d="M288 192h48m-24-24v48" stroke="#939AAC" stroke-width="4" stroke-linecap="round" stroke-linejoin="round"/>
  <text x="200" y="268" text-anchor="middle" font-family="Inter, Arial, sans-serif" font-size="16" fill="#2B2B2B">г. Москва, ул. Примерная, д. 123</text>
</svg>
